#!OML:ASF I:\Actors\actors\Patient Classification 2\Patient 1\Session 1\actor1.ASF
:FULLY-SPECIFIED
:DEGREES
470
root -0.526812 18.8173 4.38985 16.0128 6.23871 5.6998
lowerback 34.2859 -1.25496 11.0575
upperback 8.31751 2.79839 5.21838
thorax -7.71057 1.21098 -1.22954
lowerneck -10.3506 -13.0067 -12.0124
upperneck 9.80751 -17.253 12.2501
head 6.80268 -8.04264 3.98909
rclavicle -2.54444e-014 -9.22361e-014
rhumerus -2.76986 9.25796 -64.1756
rradius 88.7576
rwrist -69.8634
rhand -14.837 284.766
rfingers 7.12502
rthumb 11.3219 104.909
lclavicle -2.54444e-014 -9.22361e-014
lhumerus -10.2948 -56.7243 85.403
lradius 101.947
lwrist 60.8426
lhand -29.8033 -6.48399
lfingers 7.12502
lthumb -3.12748 23.4728
rfemur -19.2642 -2.83671 6.78277
rtibia 14.8364
rfoot -19.5024 -14.5087
rtoes -8.59538
lfemur -26.8539 -3.19109 -18.8746
ltibia 22.1021
lfoot -11.439 3.91099
ltoes -55.9913
471
root -0.521695 18.8161 4.40745 15.8892 6.40423 5.54366
lowerback 33.9599 -1.06835 11.0919
upperback 8.33638 2.98828 5.1962
thorax -7.54912 1.30926 -1.33634
lowerneck -10.291 -12.9693 -11.8886
upperneck 9.99619 -17.2063 11.9992
head 6.81133 -8.02922 3.90128
rclavicle -5.40694e-014 -3.97569e-014
rhumerus -3.58626 10.4202 -64.7766
rradius 89.6561
rwrist -69.5972
rhand -10.8163 283.286
rfingers 7.12502
rthumb 15.1974 106.136
lclavicle -5.40694e-014 -3.97569e-014
lhumerus -13.2677 -56.0621 86.4209
lradius 103.238
lwrist 62.0015
lhand -29.7777 -7.04541
lfingers 7.12502
lthumb -3.10277 22.9118
rfemur -18.8999 -2.95304 6.98051
rtibia 14.5547
rfoot -19.4974 -14.4604
rtoes -8.3683
lfemur -26.7637 -3.31807 -18.6887
ltibia 22.2395
lfoot -11.5347 3.93643
ltoes -56.1614
472
root -0.51843 18.8157 4.42256 15.4589 6.51864 5.40521
lowerback 34.0515 -0.847634 11
upperback 8.35124 3.24461 5.20512
thorax -7.55553 1.42928 -1.37122
lowerneck -10.2812 -12.948 -11.8307
upperneck 10.3495 -17.1789 11.7339
head 6.88807 -8.02194 3.80948
rclavicle 9.54166e-015 7.95139e-015
rhumerus -3.66237 11.3928 -64.8314
rradius 90.0163
rwrist -69.5673
rhand -11.2175 284.42
rfingers 7.12502
rthumb 14.811 105.031
lclavicle 9.54166e-015 7.95139e-015
lhumerus -14.3462 -55.1125 86.1544
lradius 104.174
lwrist 62.4311
lhand -30.0432 -6.03654
lfingers 7.12502
lthumb -3.35916 23.9167
rfemur -18.1835 -2.88899 7.12363
rtibia 14.2181
rfoot -19.5429 -14.4492
rtoes -8.20839
lfemur -26.3317 -3.30271 -18.5763
ltibia 22.3945
lfoot -11.6442 3.8407
ltoes -56.2142
473
root -0.515513 18.8166 4.43481 15.0448 6.64359 5.24268
lowerback 34.0129 -0.532637 10.8674
upperback 8.39188 3.58751 5.26505
thorax -7.48543 1.59412 -1.36035
lowerneck -10.2547 -12.9721 -11.951
upperneck 10.7273 -17.2196 11.67
head 7.01402 -8.0403 3.79547
rclavicle 6.36111e-014 8.26944e-014
rhumerus -2.96104 11.8823 -64.4332
rradius 89.7996
rwrist -69.5121
rhand -10.0397 282.847
rfingers 7.12502
rthumb 15.9454 106.517
lclavicle 6.36111e-014 8.26944e-014
lhumerus -13.6075 -54.5479 84.8643
lradius 104.522
lwrist 63.1038
lhand -30.2454 -6.5622
lfingers 7.12502
lthumb -3.55444 23.3879
rfemur -17.4628 -2.72606 7.28236
rtibia 13.8371
rfoot -19.6228 -14.5187
rtoes -8.08821
lfemur -25.9384 -3.24921 -18.4386
ltibia 22.5707
lfoot -11.7223 3.70317
ltoes -56.1497
474
root -0.50705 18.8164 4.43587 15.029 6.85503 5.03744
lowerback 33.343 -0.141435 10.8056
upperback 8.46432 3.95958 5.36983
thorax -7.25272 1.78361 -1.39685
lowerneck -10.2183 -13.0196 -12.055
upperneck 11.1149 -17.296 11.6049
head 7.14464 -8.07543 3.77395
rclavicle -4.45278e-014 -3.49861e-014
rhumerus -1.5204 11.8107 -63.7656
rradius 88.9174
rwrist -69.2696
rhand -10.4113 284.243
rfingers 7.12502
rthumb 15.5876 105.149
lclavicle -4.45278e-014 -3.49861e-014
lhumerus -11.2099 -54.0053 82.7643
lradius 104.539
lwrist 63.8955
lhand -30.7794 -6.30958
lfingers 7.12502
lthumb -4.07011 23.6313
rfemur -17.1936 -2.68798 7.49109
rtibia 13.4321
rfoot -19.6957 -14.6506
rtoes -7.62428
lfemur -26.0731 -3.27095 -18.2253
ltibia 22.7808
lfoot -11.717 3.6013
ltoes -56.0963
475
root -0.493905 18.8142 4.41665 14.9801 7.13719 4.83615
lowerback 33.0713 0.171196 10.8475
upperback 8.3215 4.34513 5.42515
thorax -7.27768 1.95928 -1.49173
lowerneck -10.2221 -13.0429 -12.0367
upperneck 11.6609 -17.3349 11.334
head 7.29796 -8.09673 3.67164
rclavicle -2.8625e-014 -1.90833e-014
rhumerus 0.189154 11.4003 -62.9688
rradius 87.654
rwrist -68.8312
rhand -10.3527 284.544
rfingers 7.12502
rthumb 15.644 104.843
lclavicle -2.8625e-014 -1.90833e-014
lhumerus -7.93018 -53.4567 80.5679
lradius 104.12
lwrist 64.8125
lhand -31.2215 -6.55579
lfingers 7.12502
lthumb -4.49698 23.3765
rfemur -16.966 -2.76966 7.68389
rtibia 13.0511
rfoot -19.6687 -14.7805
rtoes -7.34792
lfemur -26.286 -3.52643 -17.9967
ltibia 23.0331
lfoot -11.7276 3.69093
ltoes -56.1988
476
root -0.481058 18.8123 4.3847 14.8939 7.45458 4.6217
lowerback 33.0365 0.434825 10.8572
upperback 8.12149 4.70436 5.50875
thorax -7.46362 2.11132 -1.53698
lowerneck -10.1429 -13.0433 -12.1885
upperneck 12.1694 -17.3441 11.2132
head 7.45236 -8.10495 3.65003
rclavicle -3.49861e-014 1.74931e-014
rhumerus 2.22004 10.8164 -62.066
rradius 85.9402
rwrist -68.2699
rhand -9.89769 284.627
rfingers 7.12502
rthumb 16.0822 104.725
lclavicle -3.49861e-014 1.74931e-014
lhumerus -4.11544 -52.708 78.5025
lradius 103.329
lwrist 65.5603
lhand -31.5525 -6.76115
lfingers 7.12502
lthumb -4.81667 23.1641
rfemur -16.7676 -2.87475 7.88545
rtibia 12.7107
rfoot -19.5289 -14.9735
rtoes -7.57001
lfemur -26.5265 -3.83496 -17.7553
ltibia 23.3024
lfoot -11.7454 3.8391
ltoes -56.2911
477
root -0.467925 18.8106 4.35621 14.9765 7.78896 4.41575
lowerback 32.7282 0.693163 10.8891
upperback 7.96385 5.01664 5.55557
thorax -7.49519 2.25234 -1.60844
lowerneck -10.0592 -13.0754 -12.3599
upperneck 12.6266 -17.3977 11.1469
head 7.60257 -8.13331 3.64268
rclavicle 4.13472e-014 4.13472e-014
rhumerus 4.82764 9.93031 -61.0904
rradius 83.5106
rwrist -68.1432
rhand -9.40357 284.415
rfingers 7.12502
rthumb 16.5579 104.898
lclavicle 4.13472e-014 4.13472e-014
lhumerus 0.125773 -51.8776 76.5402
lradius 102.161
lwrist 66.2361
lhand -31.7927 -6.51271
lfingers 7.12502
lthumb -5.04858 23.4071
rfemur -16.7614 -3.05564 8.09137
rtibia 12.4115
rfoot -19.4068 -15.1392
rtoes -7.28025
lfemur -26.9276 -4.06187 -17.5273
ltibia 23.5374
lfoot -11.7166 3.88778
ltoes -56.2765
478
root -0.454829 18.8089 4.33088 15.0902 8.11058 4.26167
lowerback 32.4152 0.912903 10.9696
upperback 7.85264 5.2803 5.50698
thorax -7.46077 2.3764 -1.78427
lowerneck -10.1245 -13.1599 -12.4439
upperneck 13.1127 -17.5156 11.0318
head 7.78365 -8.18609 3.58812
rclavicle -9.85972e-014 -2.22639e-014
rhumerus 7.77176 8.73058 -60.2264
rradius 80.58
rwrist -68.5717
rhand -9.11345 284.202
rfingers 7.12502
rthumb 16.8372 105.088
lclavicle -9.85972e-014 -2.22639e-014
lhumerus 4.59763 -51.0676 74.6631
lradius 100.709
lwrist 66.9586
lhand -32.054 -5.86374
lfingers 7.12502
lthumb -5.30083 24.05
rfemur -16.803 -3.35667 8.26538
rtibia 12.174
rfoot -19.2827 -15.1823
rtoes -6.70026
lfemur -27.311 -4.25054 -17.359
ltibia 23.7216
lfoot -11.6881 3.84454
ltoes -56.2807
479
root -0.443817 18.8077 4.3022 15.2237 8.38286 4.17638
lowerback 32.2257 1.11327 10.9795
upperback 7.7676 5.50543 5.39696
thorax -7.44864 2.48255 -1.97719
lowerneck -10.2172 -13.2735 -12.6473
upperneck 13.5016 -17.6813 11.134
head 7.97735 -8.25204 3.61107
rclavicle -1.27222e-014 -2.8625e-014
rhumerus 10.7739 7.35739 -59.5888
rradius 77.4514
rwrist -68.9353
rhand -8.86503 284.194
rfingers 7.12502
rthumb 17.0764 105.075
lclavicle -1.27222e-014 -2.8625e-014
lhumerus 9.07576 -50.3121 72.9416
lradius 98.9502
lwrist 67.6512
lhand -32.3608 -5.29593
lfingers 7.12502
lthumb -5.59706 24.6102
rfemur -16.9042 -3.63381 8.36614
rtibia 11.9956
rfoot -19.1236 -15.2498
rtoes -6.61377
lfemur -27.6828 -4.33542 -17.2815
ltibia 23.8552
lfoot -11.6423 3.70989
ltoes -56.2622
